<?xml version="1.0" standalone="no"?>
<!DOCTYPE svg PUBLIC "-//W3C//DTD SVG 20010904//EN"
 "http://www.w3.org/TR/2001/REC-SVG-20010904/DTD/svg10.dtd">
<svg version="1.0" xmlns="http://www.w3.org/2000/svg"
 width="180.000000pt" height="180.000000pt" viewBox="0 0 180.000000 180.000000"
 preserveAspectRatio="xMidYMid meet">

<g transform="translate(0.000000,180.000000) scale(0.100000,-0.100000)"
fill="#000000" stroke="none">
<path d="M1790 905 l0 -895 -895 2 c-492 2 -895 0 -895 -4 0 -5 405 -8 900 -8
l900 0 0 900 c0 495 -2 900 -5 900 -3 0 -5 -403 -5 -895z"/>
<path d="M785 1626 c-118 -29 -232 -117 -287 -223 -55 -105 -62 -149 -53 -353
8 -201 0 -261 -60 -439 -19 -57 -35 -109 -35 -116 0 -7 -16 -32 -35 -57 -32
-43 -33 -47 -17 -61 15 -14 20 -13 52 9 83 58 182 10 386 -186 l95 -90 72 0
72 1 -71 37 c-39 21 -88 52 -110 69 -62 49 -255 174 -299 194 -56 26 -125 25
-159 -2 -37 -29 -42 -18 -10 20 62 74 181 98 316 66 143 -35 344 -121 370
-159 4 -6 10 -7 14 -3 4 4 5 8 3 10 -40 29 -67 57 -56 57 8 0 29 -16 46 -35
31 -36 39 -51 21 -40 -18 11 -11 -10 9 -27 19 -16 19 -15 14 20 -3 20 -12 57
-19 82 l-13 45 22 -29 c48 -64 58 -70 32 -21 l-27 50 25 -29 c14 -16 30 -39
36 -50 28 -57 81 -179 81 -187 0 -5 7 -9 15 -9 8 0 15 2 15 6 0 13 -60 145
-84 182 -14 23 -22 42 -17 42 17 0 72 -89 93 -151 15 -44 25 -59 39 -59 10 0
19 4 19 8 0 4 14 13 30 19 17 6 30 18 30 25 0 30 -62 109 -119 154 -112 87
-112 125 9 397 139 314 150 440 55 626 -84 168 -299 256 -500 207z m299 -42
c81 -39 149 -111 193 -203 33 -68 37 -86 41 -176 5 -122 -14 -205 -84 -352
-91 -193 -106 -229 -119 -293 -10 -51 -13 -57 -14 -29 -2 54 25 131 96 278 78
162 104 255 104 371 -1 146 -51 257 -144 314 -39 24 -58 29 -116 30 -92 0
-177 -41 -275 -134 -160 -153 -222 -328 -198 -562 13 -115 -2 -206 -37 -241
l-23 -22 24 45 c21 41 22 55 18 150 -11 274 -3 331 64 471 26 52 30 71 23 92
-5 17 -5 39 2 57 14 41 5 37 -18 -7 -17 -34 -37 -102 -57 -188 -6 -27 -7 -28
-14 -10 -14 32 -11 98 5 151 18 60 18 66 0 34 -24 -46 -37 -149 -30 -255 3
-55 2 -172 -4 -260 -10 -168 -20 -212 -65 -263 -13 -15 -35 -40 -50 -57 -33
-39 -32 -24 4 86 53 162 63 241 55 444 -6 147 -4 192 8 240 37 144 129 245
277 304 47 18 71 21 165 18 98 -3 117 -7 169 -33z m27 -182 c73 -74 117 -137
105 -150 -4 -3 -12 0 -18 6 -23 23 -65 14 -93 -20 -26 -31 -27 -37 -22 -102 3
-38 11 -74 18 -80 9 -8 10 1 6 38 -3 35 -1 54 9 63 12 12 15 12 20 -1 3 -9 14
-16 23 -17 12 0 12 -2 -4 -9 -19 -8 -19 -9 3 -9 14 -1 22 5 22 15 0 34 25 5
32 -37 13 -74 -44 -259 -94 -310 -52 -52 -147 -52 -253 0 -72 36 -109 74 -138
143 -18 43 -22 47 -47 42 -15 -4 -31 -1 -34 5 -4 7 1 11 13 11 11 0 36 16 55
35 28 28 42 57 67 138 35 111 53 136 154 207 28 19 59 52 70 73 11 20 22 37
25 37 3 0 39 -35 81 -78z m-187 22 c26 -10 19 -23 -34 -55 -27 -17 -70 -53
-94 -81 -42 -48 -46 -50 -61 -34 -16 15 -12 22 64 96 79 78 93 86 125 74z
m284 -196 c15 -15 16 -48 2 -48 -5 0 -10 7 -10 15 0 8 -12 18 -26 21 -19 5
-22 9 -12 15 18 12 32 11 46 -3z m-28 -32 c0 -2 -11 -6 -25 -8 -13 -3 -22 -1
-19 3 5 9 44 13 44 5z m-511 -85 c-15 -5 -22 6 -14 19 6 9 10 9 16 -1 5 -8 4
-15 -2 -18z m62 -251 c22 -41 57 -84 111 -132 43 -39 93 -91 110 -115 28 -38
31 -50 29 -101 -5 -99 -16 -101 -212 -37 -76 25 -150 45 -165 45 l-28 0 41 43
c70 73 78 96 78 235 0 67 1 122 2 122 1 0 16 -27 34 -60z m548 -630 c0 -10 -3
-8 -9 5 -12 27 -12 43 0 25 5 -8 9 -22 9 -30z"/>
<path d="M948 1554 c-65 -20 -69 -34 -5 -17 61 16 110 17 156 3 45 -13 51 -6
12 14 -37 19 -100 19 -163 0z"/>
<path d="M853 1254 l-28 -25 34 16 c21 11 43 14 60 10 26 -7 26 -7 -14 -25
-39 -17 -77 -50 -57 -50 5 0 15 6 21 14 17 20 70 31 84 17 8 -8 4 -11 -16 -11
-33 0 -98 -31 -79 -38 7 -2 18 1 25 7 9 7 16 5 25 -9 9 -14 8 -20 -1 -23 -7
-3 -2 -6 11 -6 12 -1 22 3 22 9 0 5 10 12 23 15 14 4 28 21 41 51 25 60 13 74
-65 74 -48 0 -63 -4 -86 -26z"/>
<path d="M997 1027 c-8 -20 1 -27 34 -27 20 0 26 -4 24 -17 -1 -10 0 -12 2 -5
5 15 19 16 28 2 10 -16 42 -12 49 6 6 17 -9 54 -23 54 -5 0 -11 -7 -15 -15 -4
-11 -11 -13 -28 -6 -13 4 -29 6 -37 3 -7 -2 -17 1 -21 8 -5 9 -9 8 -13 -3z"/>
<path d="M1023 940 c-4 -5 -21 -10 -37 -12 -16 -2 -31 -9 -34 -16 -2 -7 2 -10
11 -6 8 3 27 -8 45 -25 37 -37 76 -41 93 -8 7 12 17 25 23 29 15 10 -30 41
-65 43 -15 2 -31 -1 -36 -5z m14 -36 c-3 -3 -12 -4 -19 -1 -8 3 -5 6 6 6 11 1
17 -2 13 -5z"/>
<path d="M580 395 c0 -7 231 -160 335 -222 59 -35 100 -53 122 -53 18 0 33 3
33 8 0 4 -35 26 -77 48 -43 23 -130 70 -193 106 -134 76 -220 120 -220 113z"/>
</g>
</svg>
